<?xml version="1.0" encoding="UTF-8" standalone="no"?>
<svg
   xmlns:dc="http://purl.org/dc/elements/1.1/"
   xmlns:cc="http://creativecommons.org/ns#"
   xmlns:rdf="http://www.w3.org/1999/02/22-rdf-syntax-ns#"
   xmlns:svg="http://www.w3.org/2000/svg"
   xmlns="http://www.w3.org/2000/svg"
   viewBox="0 0 433.33334 312"
   height="312"
   width="433.33334"
   xml:space="preserve"
   id="svg2"
   version="1.1"><metadata
     id="metadata8"><rdf:RDF><cc:Work
         rdf:about=""><dc:format>image/svg+xml</dc:format><dc:type
           rdf:resource="http://purl.org/dc/dcmitype/StillImage" /></cc:Work></rdf:RDF></metadata><defs
     id="defs6" /><g
     transform="matrix(1.3333333,0,0,-1.3333333,0,312)"
     id="g10"><g
       transform="scale(0.1)"
       id="g12"><path
         id="path14"
         style="fill:#266095;fill-opacity:1;fill-rule:evenodd;stroke:none"
         d="M 2713.95,685.66 C 2583.48,571.172 2444.77,477.07 2297.89,403.441 2151.37,329.41 2002.15,274.262 1850.23,238.09 1698.28,201.801 1549.26,182.93 1403.16,181.371 1257.03,179.801 1119.3,194.219 989.961,224.609 860.23,254.609 744.34,299.219 642.23,358.398 540.199,417.27 457.191,489.141 393.32,574.102 329.41,659.02 290.27,755.43 275.859,863.359 c -16.41,127.813 -5.269,253.051 33.282,375.781 38.558,122.7 105.781,240 201.597,351.84 95.903,111.79 221.922,215.04 378.133,309.72 C 729.531,1842.27 589.648,1768.2 469.301,1678.63 348.91,1588.98 250.699,1489.22 174.73,1379.38 98.3984,1269.53 46.7617,1155 19.8398,1035.78 -6.98828,916.52 -6.64063,797.891 21.0508,679.84 49.8398,562.578 103.629,459.531 182.34,370.699 261.051,281.48 359.801,207.852 478.59,149.801 597.461,91.7617 731.09,50.8203 879.531,27.0703 1028.36,3.32031 1186.76,-1.76172 1354.65,11.8789 c 168.32,13.6719 341.29,47.5313 518.94,101.6721 184.26,57.308 354.34,130.551 510.16,219.769 156.25,89.18 293.98,189.34 413.2,300.352 119.22,111.449 216.06,228.949 290.47,352.418 H 2972.27 C 2912.66,886.762 2826.56,786.641 2713.95,685.66" /><path
         id="path16"
         style="fill:#359ed6;fill-opacity:1;fill-rule:evenodd;stroke:none"
         d="m 3220.62,1664.57 c -28.78,117.27 -82.57,220.51 -161.28,309.73 -78.72,89.25 -177.46,162.85 -296.25,220.93 -118.87,57.66 -252.5,98.32 -400.94,122.11 -148.83,23.79 -307.23,28.83 -475.12,15.2 -168.32,-13.63 -341.29,-47.5 -518.94,-101.68 -32.74,-10.12 -65.24,-21.02 -97.62,-32.74 v -366.4 c 230.66,98.55 448.44,158.36 653.4,179.41 204.88,21.06 388.63,10.51 551.05,-31.56 162.5,-41.68 295.31,-107.54 398.6,-197.54 103.63,-90 169.29,-196.37 196.91,-319.1 27.66,-122.73 9.37,-254.57 -54.92,-395.63 h 116.29 c 50.27,99.38 83.4,199.5 99.33,300.4 15.98,100.89 12.46,199.88 -10.51,296.87" /><path
         id="path18"
         style="fill:#266095;fill-opacity:1;fill-rule:nonzero;stroke:none"
         d="M 685.781,1477.77 V 1319.02 H 715 c 4.262,0 7.809,0.04 10.621,0.16 2.82,0.08 6.57,0.35 11.258,0.78 4.762,0.51 8.902,1.25 12.34,2.19 3.441,0.94 7.34,2.26 11.722,4.06 4.45,1.76 8.36,3.91 11.719,6.41 3.43,2.58 6.789,5.86 10.149,9.84 3.441,3.95 6.453,8.44 9.07,13.44 6.133,12.07 9.211,26.72 9.211,43.9 0,11.88 -1.711,22.58 -5.149,32.19 -3.441,9.57 -8.05,17.35 -13.75,23.28 -5.632,6.02 -11.679,10.78 -18.132,14.22 -6.481,3.52 -13.239,5.94 -20.309,7.19 -4.18,0.7 -10.469,1.09 -18.91,1.09 z m 38.278,21.25 c 13.011,0 24.851,-1.32 35.472,-3.9 10.629,-2.62 19.528,-6.33 26.719,-11.1 7.27,-4.68 13.52,-10 18.75,-15.93 5.199,-5.94 9.219,-12.58 12.031,-19.85 2.891,-7.3 5,-14.49 6.25,-21.56 1.328,-7.11 2.028,-14.49 2.028,-22.19 0,-8.75 -0.7,-17.19 -2.028,-25.31 -1.25,-8.13 -3.511,-16.41 -6.722,-24.84 -3.239,-8.36 -7.418,-15.86 -12.5,-22.5 -5,-6.68 -11.52,-12.66 -19.528,-17.97 -8.051,-5.32 -17.152,-9.3 -27.34,-11.88 -5.312,-1.25 -11.25,-2.26 -17.812,-2.97 -6.488,-0.62 -11.84,-1.01 -16.098,-1.09 -4.301,-0.12 -10.269,-0.16 -17.972,-0.16 h -43.59 v 201.25 z m 147.703,0 h 27.3398 v -26.7188 H 871.762 Z m 2.027,-61.4 h 23.2813 V 1297.768 H 873.789 Z" /><path
         id="path20"
         style="fill:#266095;fill-opacity:1;fill-rule:nonzero;stroke:none"
         d="m 1005.62,1440.59 c 11.14,0 23.99,-3.75 38.6,-11.25 l 2.97,8.28 h 16.4 v -148.6 c 0,-2.81 -0.11,-5.5 -0.31,-8.12 -0.23,-2.7 -0.78,-6.45 -1.72,-11.25 -0.94,-4.88 -2.3,-9.3 -4.06,-13.28 -1.68,-3.95 -4.22,-8.21 -7.66,-12.82 -3.43,-4.57 -7.5,-8.35 -12.18,-11.4 -4.69,-3.13 -10.75,-5.7 -18.13,-7.81 -7.42,-2.07 -15.7,-3.13 -24.839,-3.13 -14.382,0 -28.832,3.05 -43.281,9.06 l 6.559,16.88 c 11.562,-4.38 22.812,-6.56 33.75,-6.56 32.381,0 48.591,17.89 48.591,53.59 v 10.47 c -12.19,-6.49 -24.53,-9.69 -37.03,-9.69 -6.05,0 -11.952,0.78 -17.659,2.34 -5.742,1.57 -11.359,4.15 -16.871,7.82 -5.551,3.63 -10.391,8.16 -14.531,13.59 -4.059,5.39 -7.34,12.27 -9.84,20.63 -2.5,8.32 -3.758,17.65 -3.758,27.96 0,10.82 1.488,20.63 4.539,29.38 3,8.75 6.789,15.7 11.399,20.94 4.691,5.31 10,9.72 15.941,13.28 6.02,3.63 11.762,6.13 17.191,7.5 5.508,1.44 10.819,2.19 15.929,2.19 z m 1.41,-18.91 c -13.12,0 -23.71,-4.77 -31.721,-14.22 -8.039,-9.37 -12.028,-21.87 -12.028,-37.5 0,-10.31 1.598,-19.65 4.84,-27.97 3.328,-8.36 8.598,-15.11 15.789,-20.31 7.18,-5.12 15.82,-7.66 25.93,-7.66 10.32,0 20.47,2.7 30.47,8.13 v 91.56 c -12.93,5.31 -24.02,7.97 -33.28,7.97 z" /><path
         id="path22"
         style="fill:#266095;fill-opacity:1;fill-rule:nonzero;stroke:none"
         d="m 1112.46,1499.02 h 27.3398 v -26.7188 H 1112.46 Z m 2.03,-61.4 h 23.2813 V 1297.768 H 1114.49 Z" /><path
         id="path24"
         style="fill:#266095;fill-opacity:1;fill-rule:nonzero;stroke:none"
         d="m 1263.09,1300.12 c -13.68,-3.44 -24.34,-5.16 -32.04,-5.16 -7.61,0 -14.06,1.21 -19.37,3.59 -5.31,2.5 -9.34,5.98 -12.03,10.47 -2.74,4.57 -4.69,9.46 -5.94,14.69 -1.17,5.31 -1.72,11.33 -1.72,18.13 v 77.5 h -18.9 v 18.28 h 18.9 v 40.15 h 23.28 v -40.15 h 42.5 v -18.28 h -42.5 v -77.19 c 0,-19.38 7.58,-29.06 22.82,-29.06 2.81,0 10.03,0.97 21.71,2.96 z" /><path
         id="path26"
         style="fill:#266095;fill-opacity:1;fill-rule:nonzero;stroke:none"
         d="m 1344.84,1440.43 c 10.39,0 19.22,-1.25 26.41,-3.75 7.27,-2.42 12.85,-5.9 16.72,-10.47 3.94,-4.61 6.76,-9.76 8.44,-15.47 1.75,-5.62 2.65,-12.15 2.65,-19.53 v -93.44 h -16.4 l -5.47,12.82 c -11.49,-10.43 -24.61,-15.63 -39.38,-15.63 -13.24,0 -24.45,3.95 -33.59,11.88 -9.18,8 -13.75,17.34 -13.75,27.96 0,5.71 1.01,10.82 3.12,15.32 2.07,4.57 5.08,8.36 9.07,11.4 3.94,3.01 8.43,5.55 13.43,7.66 5,2.19 10.79,3.79 17.35,4.84 6.64,1.14 13.32,1.92 20,2.35 6.76,0.51 14.14,0.78 22.18,0.78 v 11.09 c 0,3.21 -0.11,5.98 -0.31,8.28 -0.23,2.39 -1.01,5.24 -2.34,8.6 -1.37,3.32 -3.2,6.01 -5.47,8.12 -2.19,2.07 -5.59,3.91 -10.16,5.47 -4.49,1.56 -9.84,2.34 -16.09,2.34 -9.69,0 -22.15,-2.1 -37.34,-6.25 l -4.38,16.88 c 15.39,5.82 30.51,8.75 45.31,8.75 z m 30.78,-80.78 h -8.59 c -5.43,0 -10.12,-0.12 -14.06,-0.31 -3.99,-0.24 -8.59,-0.79 -13.91,-1.72 -5.31,-0.86 -9.68,-2.11 -13.12,-3.75 -3.44,-1.57 -6.37,-3.91 -8.75,-7.03 -2.42,-3.05 -3.6,-6.64 -3.6,-10.79 0,-5.93 2.97,-11.25 8.91,-15.93 6.02,-4.61 13.2,-6.88 21.56,-6.88 12.19,0 22.7,4.73 31.56,14.22 z" /><path
         id="path28"
         style="fill:#266095;fill-opacity:1;fill-rule:nonzero;stroke:none"
         d="m 1452.62,1297.77 h 23.2773 v 213.91 H 1452.62 Z" /><path
         id="path30"
         style="fill:#266095;fill-opacity:1;fill-rule:nonzero;stroke:none"
         d="m 1723.2,1500.43 c 18.21,0 36.41,-3.59 54.53,-10.78 l -7.34,-20 c -18.36,6.33 -34.34,9.53 -47.97,9.53 -11.37,0 -21.87,-2.27 -31.56,-6.72 -9.61,-4.49 -17.62,-10.47 -24.06,-17.97 -6.37,-7.5 -11.37,-16.09 -15,-25.78 -3.56,-9.69 -5.32,-19.84 -5.32,-30.47 0,-10.94 1.92,-21.36 5.79,-31.25 3.82,-9.8 9.21,-18.4 16.09,-25.78 6.87,-7.42 15.39,-13.28 25.62,-17.66 10.32,-4.37 21.57,-6.56 33.75,-6.56 14.46,0 29.57,2.85 45.32,8.6 l 7.5,-17.97 c -19.81,-8.44 -39.46,-12.66 -58.91,-12.66 -12.11,0 -23.44,1.72 -34.06,5.16 -10.55,3.51 -19.77,8.43 -27.66,14.68 -7.93,6.25 -14.69,13.64 -20.31,22.19 -5.63,8.63 -9.92,18.13 -12.81,28.44 -2.93,10.39 -4.38,21.33 -4.38,32.81 0,19.26 3.99,36.6 12.03,52.03 8.13,15.39 19.89,27.58 35.32,36.57 15.39,9.06 33.2,13.59 53.43,13.59 z" /><path
         id="path32"
         style="fill:#266095;fill-opacity:1;fill-rule:nonzero;stroke:none"
         d="m 1860.82,1440.43 c 10.39,0 19.22,-1.25 26.41,-3.75 7.26,-2.42 12.85,-5.9 16.72,-10.47 3.94,-4.61 6.75,-9.76 8.43,-15.47 1.76,-5.62 2.66,-12.15 2.66,-19.53 v -93.44 h -16.41 l -5.47,12.82 c -11.48,-10.43 -24.61,-15.63 -39.37,-15.63 -13.24,0 -24.45,3.95 -33.59,11.88 -9.18,8 -13.75,17.34 -13.75,27.96 0,5.71 1.01,10.82 3.12,15.32 2.07,4.57 5.08,8.36 9.06,11.4 3.95,3.01 8.44,5.55 13.44,7.66 5,2.19 10.78,3.79 17.34,4.84 6.64,1.14 13.32,1.92 20,2.35 6.76,0.51 14.14,0.78 22.19,0.78 v 11.09 c 0,3.21 -0.12,5.98 -0.31,8.28 -0.24,2.39 -1.02,5.24 -2.34,8.6 -1.37,3.32 -3.21,6.01 -5.47,8.12 -2.19,2.07 -5.59,3.91 -10.16,5.47 -4.49,1.56 -9.84,2.34 -16.09,2.34 -9.69,0 -22.15,-2.1 -37.35,-6.25 l -4.37,16.88 c 15.39,5.82 30.51,8.75 45.31,8.75 z m 30.78,-80.78 h -8.59 c -5.43,0 -10.12,-0.12 -14.06,-0.31 -3.99,-0.24 -8.6,-0.79 -13.91,-1.72 -5.31,-0.86 -9.69,-2.11 -13.13,-3.75 -3.43,-1.57 -6.36,-3.91 -8.75,-7.03 -2.42,-3.05 -3.59,-6.64 -3.59,-10.79 0,-5.93 2.97,-11.25 8.91,-15.93 6.01,-4.61 13.2,-6.88 21.56,-6.88 12.19,0 22.69,4.73 31.56,14.22 z" /><path
         id="path34"
         style="fill:#266095;fill-opacity:1;fill-rule:nonzero;stroke:none"
         d="m 1986.45,1427.15 c 11.87,8.83 24.92,13.28 39.21,13.28 9.77,0 18.68,-1.88 26.72,-5.63 l -7.03,-18.43 c -7.42,2.81 -15.08,4.22 -22.97,4.22 -11.87,0 -22.97,-3.29 -33.28,-9.85 v -112.97 h -23.28 v 139.85 h 16.25 z" /><path
         id="path36"
         style="fill:#266095;fill-opacity:1;fill-rule:nonzero;stroke:none"
         d="m 2139.26,1440.43 c 6.87,0 13.01,-0.86 18.44,-2.5 5.39,-1.68 9.88,-3.83 13.43,-6.41 3.64,-2.5 6.72,-5.86 9.22,-10 2.58,-4.06 4.57,-8.04 5.94,-11.87 1.44,-3.75 2.54,-8.36 3.28,-13.75 0.7,-5.43 1.17,-10.12 1.41,-14.06 0.19,-3.99 0.31,-8.6 0.31,-13.91 v -11.09 h -96.09 c 0,-5.12 1.13,-10.24 3.43,-15.32 2.27,-5 5.51,-9.64 9.69,-13.9 4.26,-4.18 9.77,-7.58 16.56,-10.16 6.88,-2.62 14.46,-3.91 22.82,-3.91 9.76,0 20.39,1.65 31.87,5 l 4.06,-15.78 c -15.23,-5.19 -30.11,-7.81 -44.68,-7.81 -10.32,0 -19.5,1.37 -27.5,4.06 -7.93,2.7 -14.34,6.25 -19.22,10.63 -4.93,4.45 -8.91,9.76 -12.03,15.94 -3.13,6.13 -5.28,12.22 -6.41,18.28 -1.17,6.01 -1.72,12.5 -1.72,19.37 0,10.39 1.25,19.92 3.75,28.6 2.58,8.75 6.02,16.01 10.31,21.87 4.38,5.94 9.46,10.94 15.32,15 5.82,4.06 11.91,7.03 18.28,8.91 6.32,1.87 12.85,2.81 19.53,2.81 z m -4.85,-20.16 c -8.36,0 -15.54,-2.3 -21.56,-6.87 -5.94,-4.61 -10.31,-10.28 -13.12,-17.03 -2.74,-6.8 -4.07,-14.14 -4.07,-22.03 h 73.13 c 0,30.62 -11.49,45.93 -34.38,45.93 z" /><path
         id="path38"
         style="fill:#266095;fill-opacity:1;fill-rule:nonzero;stroke:none"
         d="m 2295.59,1440.43 c 6.87,0 13,-0.86 18.43,-2.5 5.39,-1.68 9.89,-3.83 13.44,-6.41 3.63,-2.5 6.72,-5.86 9.22,-10 2.58,-4.06 4.57,-8.04 5.94,-11.87 1.44,-3.75 2.54,-8.36 3.28,-13.75 0.7,-5.43 1.17,-10.12 1.4,-14.06 0.2,-3.99 0.32,-8.6 0.32,-13.91 v -11.09 h -96.1 c 0,-5.12 1.14,-10.24 3.44,-15.32 2.27,-5 5.51,-9.64 9.69,-13.9 4.26,-4.18 9.76,-7.58 16.56,-10.16 6.88,-2.62 14.45,-3.91 22.81,-3.91 9.77,0 20.39,1.65 31.88,5 l 4.06,-15.78 c -15.23,-5.19 -30.12,-7.81 -44.69,-7.81 -10.31,0 -19.49,1.37 -27.5,4.06 -7.93,2.7 -14.33,6.25 -19.22,10.63 -4.92,4.45 -8.9,9.76 -12.03,15.94 -3.12,6.13 -5.27,12.22 -6.4,18.28 -1.17,6.01 -1.72,12.5 -1.72,19.37 0,10.39 1.25,19.92 3.75,28.6 2.58,8.75 6.01,16.01 10.31,21.87 4.38,5.94 9.45,10.94 15.31,15 5.82,4.06 11.92,7.03 18.28,8.91 6.33,1.87 12.86,2.81 19.54,2.81 z m -4.85,-20.16 c -8.36,0 -15.54,-2.3 -21.56,-6.87 -5.94,-4.61 -10.31,-10.28 -13.13,-17.03 -2.73,-6.8 -4.06,-14.14 -4.06,-22.03 h 73.13 c 0,30.62 -11.49,45.93 -34.38,45.93 z" /><path
         id="path40"
         style="fill:#266095;fill-opacity:1;fill-rule:nonzero;stroke:none"
         d="m 2412.38,1427.15 c 11.88,8.83 24.92,13.28 39.22,13.28 9.77,0 18.67,-1.88 26.72,-5.63 l -7.03,-18.43 c -7.42,2.81 -15.08,4.22 -22.97,4.22 -11.87,0 -22.97,-3.29 -33.28,-9.85 v -112.97 h -23.28 v 139.85 h 16.25 z" /><path
         id="path42"
         style="fill:#266095;fill-opacity:1;fill-rule:nonzero;stroke:none"
         d="m 2563.16,1440.43 c 1.96,0 3.79,-0.08 5.47,-0.16 1.76,0 3.48,-0.11 5.16,-0.31 1.64,-0.23 3.05,-0.39 4.22,-0.47 1.25,-0.11 2.65,-0.31 4.22,-0.62 1.56,-0.24 2.65,-0.43 3.28,-0.63 0.7,-0.12 1.91,-0.39 3.59,-0.78 1.64,-0.43 2.66,-0.7 2.97,-0.78 0.39,-0.12 1.48,-0.47 3.28,-1.09 1.88,-0.55 2.97,-0.86 3.28,-0.94 l -5.93,-17.66 c -12.62,3.52 -23.75,5.31 -33.44,5.31 -5.55,0 -10.47,-0.58 -14.85,-1.71 -4.29,-1.18 -7.57,-2.58 -9.84,-4.22 -2.3,-1.57 -4.18,-3.44 -5.62,-5.63 -1.49,-2.11 -2.43,-3.98 -2.82,-5.62 -0.43,-1.57 -0.62,-3.09 -0.62,-4.53 0,-3.87 1.95,-7.31 5.94,-10.32 4.06,-3.04 9.06,-5.47 15,-7.34 6.01,-1.88 12.53,-4.14 19.53,-6.72 6.95,-2.62 13.43,-5.39 19.37,-8.28 6.02,-2.93 11.02,-6.99 15,-12.19 4.06,-5.12 6.1,-11.09 6.1,-17.97 0,-3.86 -0.55,-7.61 -1.57,-11.25 -0.93,-3.55 -2.81,-7.34 -5.62,-11.4 -2.74,-3.99 -6.33,-7.42 -10.78,-10.32 -4.38,-2.81 -10.28,-5.15 -17.66,-7.03 -7.3,-1.87 -15.74,-2.81 -25.31,-2.81 -14.38,0 -30.24,3.52 -47.5,10.63 l 6.56,17.5 c 9.69,-3.56 17.58,-6.1 23.75,-7.66 6.25,-1.48 12.34,-2.19 18.28,-2.19 23.01,0 34.53,7.27 34.53,21.88 0,3.2 -1.17,6.01 -3.43,8.43 -2.31,2.5 -5.32,4.54 -9.07,6.1 -3.75,1.56 -8.04,3.16 -12.81,4.84 -4.8,1.64 -9.69,3.17 -14.69,4.53 -4.92,1.45 -9.76,3.32 -14.53,5.63 -4.69,2.26 -8.98,4.84 -12.81,7.65 -3.75,2.82 -6.8,6.41 -9.06,10.79 -2.19,4.45 -3.28,9.53 -3.28,15.15 0,3.32 0.5,6.76 1.56,10.31 1.01,3.52 3.04,7.23 6.09,11.1 3.01,3.94 6.72,7.38 11.1,10.31 4.45,3.01 10.39,5.51 17.81,7.5 7.38,1.95 15.78,2.97 25.15,2.97 z" /><path
         id="path44"
         style="fill:#266095;fill-opacity:1;fill-rule:nonzero;stroke:none"
         d="m 1100.47,1169.02 h 27.34 l 71.57,-201.25 H 1175 l -20.31,58.44 h -82.97 l -20.47,-58.44 h -22.19 z m 12.65,-23.59 -34.21,-98.13 h 68.43 z" /><path
         id="path46"
         style="fill:#266095;fill-opacity:1;fill-rule:nonzero;stroke:none"
         d="m 1225.04,1034.49 c 0,11.02 1.29,20.94 3.91,29.69 2.69,8.83 6.25,16.09 10.62,21.72 4.38,5.62 9.53,10.31 15.47,14.06 5.94,3.75 12.03,6.41 18.28,7.97 6.25,1.56 12.73,2.34 19.53,2.34 13.44,0 26.49,-2.81 39.22,-8.43 l -5.62,-17.04 c -10.55,3.64 -20.79,5.47 -30.79,5.47 -4.92,0 -9.53,-0.47 -13.9,-1.4 -4.3,-0.86 -8.6,-2.46 -12.97,-4.85 -4.3,-2.42 -7.97,-5.47 -11.09,-9.22 -3.05,-3.67 -5.47,-8.51 -7.35,-14.53 -1.87,-6.05 -2.81,-12.97 -2.81,-20.78 0,-8.67 0.98,-16.25 2.97,-22.81 1.95,-6.56 4.57,-11.88 7.81,-15.94 3.2,-4.06 7.07,-7.42 11.56,-10.002 4.46,-2.5 8.99,-4.289 13.6,-5.308 4.57,-0.942 9.45,-1.41 14.68,-1.41 8.95,0 17.86,1.57 26.72,4.691 l 5.63,-15.941 c -13.44,-5.192 -26.88,-7.809 -40.31,-7.809 -6.25,0 -12.27,0.629 -17.97,1.879 -5.75,1.129 -11.57,3.32 -17.5,6.558 -5.86,3.321 -10.94,7.5 -15.32,12.5 -4.29,5 -7.77,11.641 -10.46,20.002 -2.62,8.32 -3.91,17.85 -3.91,28.59 z" /><path
         id="path48"
         style="fill:#266095;fill-opacity:1;fill-rule:nonzero;stroke:none"
         d="m 1419.92,1110.43 c 10.39,0 19.22,-1.25 26.41,-3.75 7.26,-2.42 12.85,-5.9 16.72,-10.47 3.94,-4.61 6.75,-9.76 8.43,-15.47 1.76,-5.62 2.66,-12.15 2.66,-19.53 v -93.44 h -16.41 l -5.46,12.82 c -11.49,-10.43 -24.61,-15.629 -39.38,-15.629 -13.24,0 -24.45,3.949 -33.59,11.879 -9.18,8 -13.75,17.34 -13.75,27.96 0,5.71 1.01,10.82 3.12,15.32 2.07,4.57 5.08,8.36 9.06,11.4 3.95,3.01 8.44,5.55 13.44,7.66 5,2.19 10.78,3.79 17.35,4.84 6.64,1.14 13.32,1.92 20,2.35 6.75,0.51 14.14,0.78 22.18,0.78 v 11.09 c 0,3.21 -0.11,5.98 -0.31,8.28 -0.23,2.39 -1.01,5.24 -2.34,8.6 -1.37,3.32 -3.21,6.01 -5.47,8.12 -2.19,2.07 -5.59,3.91 -10.16,5.47 -4.49,1.56 -9.84,2.34 -16.09,2.34 -9.69,0 -22.15,-2.1 -37.35,-6.25 l -4.37,16.88 c 15.39,5.82 30.51,8.75 45.31,8.75 z m 30.78,-80.78 h -8.59 c -5.43,0 -10.12,-0.12 -14.06,-0.31 -3.99,-0.24 -8.6,-0.79 -13.91,-1.72 -5.31,-0.86 -9.69,-2.11 -13.12,-3.75 -3.44,-1.57 -6.37,-3.91 -8.75,-7.03 -2.43,-3.05 -3.6,-6.64 -3.6,-10.79 0,-5.93 2.97,-11.249 8.91,-15.929 6.01,-4.609 13.2,-6.883 21.56,-6.883 12.19,0 22.7,4.731 31.56,14.223 z" /><path
         id="path50"
         style="fill:#266095;fill-opacity:1;fill-rule:nonzero;stroke:none"
         d="m 1517.85,1035.27 c 0,12.07 1.64,22.89 5,32.5 3.44,9.69 8.13,17.58 14.06,23.75 5.94,6.14 12.86,10.82 20.79,14.07 8,3.32 16.64,5 25.93,5 11.14,0 22.42,-2.58 33.91,-7.66 v 78.75 h 23.12 V 967.77 h -16.09 l -3.75,8.75 c -13.12,-7.731 -26.84,-11.559 -41.09,-11.559 -5.86,0 -11.57,0.738 -17.19,2.187 -5.55,1.332 -11.06,3.75 -16.56,7.192 -5.43,3.512 -10.24,7.89 -14.38,13.121 -4.06,5.309 -7.42,12.027 -10,20.159 -2.5,8.2 -3.75,17.42 -3.75,27.65 z m 69.53,-51.25 c 10.32,0 20.35,2.66 30.16,7.968 v 93.442 c -10.12,4.57 -20.27,6.87 -30.47,6.87 -4.37,0 -8.59,-0.54 -12.66,-1.56 -4.06,-0.94 -8.24,-2.65 -12.5,-5.15 -4.18,-2.43 -7.81,-5.55 -10.93,-9.38 -3.05,-3.87 -5.55,-8.98 -7.5,-15.31 -2,-6.37 -2.97,-13.67 -2.97,-21.88 0,-8.55 1.01,-16.17 3.12,-22.81 2.07,-6.56 4.69,-11.87 7.82,-15.94 3.2,-3.981 7.03,-7.258 11.4,-9.84 4.38,-2.5 8.52,-4.219 12.5,-5.16 3.95,-0.86 7.97,-1.25 12.03,-1.25 z" /><path
         id="path52"
         style="fill:#266095;fill-opacity:1;fill-rule:nonzero;stroke:none"
         d="m 1753.28,1110.43 c 6.88,0 13.01,-0.86 18.44,-2.5 5.39,-1.68 9.88,-3.83 13.44,-6.41 3.63,-2.5 6.72,-5.86 9.22,-10 2.57,-4.06 4.57,-8.04 5.93,-11.87 1.45,-3.75 2.54,-8.36 3.28,-13.75 0.71,-5.43 1.18,-10.12 1.41,-14.06 0.2,-3.99 0.31,-8.6 0.31,-13.91 v -11.09 h -96.09 c 0,-5.12 1.13,-10.24 3.44,-15.32 2.26,-5 5.5,-9.64 9.68,-13.899 4.26,-4.18 9.77,-7.582 16.57,-10.16 6.87,-2.621 14.45,-3.91 22.81,-3.91 9.76,0 20.39,1.648 31.87,5 l 4.07,-15.781 c -15.24,-5.192 -30.12,-7.809 -44.69,-7.809 -10.31,0 -19.49,1.367 -27.5,4.059 -7.93,2.699 -14.34,6.25 -19.22,10.628 -4.92,4.454 -8.91,9.762 -12.03,15.942 -3.13,6.13 -5.27,12.22 -6.41,18.28 -1.17,6.01 -1.72,12.5 -1.72,19.37 0,10.39 1.25,19.92 3.75,28.6 2.58,8.75 6.02,16.01 10.32,21.87 4.37,5.94 9.45,10.94 15.31,15 5.82,4.06 11.91,7.03 18.28,8.91 6.33,1.87 12.85,2.81 19.53,2.81 z m -4.84,-20.16 c -8.36,0 -15.55,-2.3 -21.56,-6.87 -5.94,-4.61 -10.32,-10.28 -13.13,-17.03 -2.73,-6.8 -4.06,-14.14 -4.06,-22.03 h 73.12 c 0,30.62 -11.48,45.93 -34.37,45.93 z" /><path
         id="path54"
         style="fill:#266095;fill-opacity:1;fill-rule:nonzero;stroke:none"
         d="m 1905.39,1089.02 c -8.12,0 -19.02,-3.59 -32.66,-10.78 V 967.77 h -23.28 v 139.85 h 16.25 l 5,-11.57 c 16.88,9.57 31.49,14.38 43.91,14.38 14.26,0 25.47,-5.23 33.59,-15.63 18.44,10.32 35,15.47 49.69,15.47 7.07,0 13.28,-1.01 18.59,-2.97 5.4,-1.87 9.77,-4.53 13.13,-7.96 3.44,-3.36 6.17,-7.58 8.28,-12.66 2.07,-5 3.52,-10.31 4.38,-15.94 0.82,-5.62 1.25,-11.99 1.25,-19.06 v -83.91 h -23.29 v 85.47 c 0,1.76 -0.07,3.36 -0.15,4.85 -0.12,1.44 -0.39,3.47 -0.78,6.09 -0.32,2.58 -0.86,4.88 -1.57,6.87 -0.74,2.07 -1.87,4.26 -3.43,6.57 -1.49,2.38 -3.25,4.37 -5.32,5.93 -1.99,1.57 -4.6,2.86 -7.81,3.91 -3.24,1.02 -6.83,1.56 -10.78,1.56 -8.75,0 -20.23,-3.71 -34.37,-11.09 1.25,-5.55 1.87,-14.61 1.87,-27.19 v -82.97 h -23.12 v 86.1 c 0,2.5 -0.12,4.84 -0.32,7.03 -0.23,2.19 -0.9,5.08 -2.03,8.75 -1.17,3.75 -2.65,6.91 -4.53,9.53 -1.87,2.58 -4.8,4.88 -8.75,6.87 -3.87,1.96 -8.44,2.97 -13.75,2.97 z" /><path
         id="path56"
         style="fill:#266095;fill-opacity:1;fill-rule:nonzero;stroke:none"
         d="m 2076.84,1107.62 h 25.46 l 44.85,-118.6 41.56,118.6 h 24.06 l -80.62,-214.999 h -24.85 l 28.13,68.277 z" /><path
         id="path58"
         style="fill:#266095;fill-opacity:1;fill-rule:nonzero;stroke:none"
         d="m 697.969,806.52 c 3.75,0 7.07,-0.469 10,-1.399 3.011,-0.941 5.511,-2.152 7.5,-3.601 1.953,-1.36 3.672,-3.2 5.152,-5.469 1.449,-2.18 2.539,-4.371 3.289,-6.563 0.699,-2.109 1.289,-4.648 1.711,-7.648 0.399,-2.93 0.668,-5.469 0.789,-7.66 0.07,-2.192 0.149,-4.77 0.149,-7.66 v -6.09 H 673.59 c 0,-2.809 0.629,-5.629 1.879,-8.442 1.25,-2.808 3.011,-5.386 5.312,-7.648 2.379,-2.309 5.469,-4.18 9.219,-5.629 3.75,-1.481 7.891,-2.191 12.5,-2.191 5.391,0 11.289,0.941 17.66,2.82 l 2.18,-8.75 c -8.36,-2.891 -16.559,-4.379 -24.68,-4.379 -5.629,0 -10.711,0.738 -15.16,2.187 -4.379,1.563 -7.93,3.512 -10.621,5.942 -2.617,2.5 -4.809,5.39 -6.57,8.75 -1.68,3.43 -2.887,6.789 -3.59,10.148 -0.629,3.321 -0.938,6.883 -0.938,10.633 0,5.82 0.668,11.129 2.028,15.93 1.453,4.769 3.363,8.789 5.781,12.039 2.39,3.199 5.199,5.93 8.441,8.121 3.199,2.269 6.559,3.949 10,5 3.52,1.019 7.188,1.559 10.938,1.559 z m -2.809,-11.09 c -4.609,0 -8.558,-1.328 -11.879,-3.91 -3.242,-2.5 -5.621,-5.622 -7.191,-9.372 -1.481,-3.75 -2.18,-7.769 -2.18,-12.027 h 40.309 c 0,16.867 -6.367,25.309 -19.059,25.309 z m 87.649,11.09 c 6.14,0 13.211,-2.032 21.25,-6.09 l 1.722,4.531 h 8.91 v -118.75 h -12.812 v 45.469 c -6.801,-3.668 -13.758,-5.469 -20.938,-5.469 -3.242,0 -6.371,0.43 -9.382,1.25 -3.039,0.699 -6.09,2.07 -9.219,4.059 -3.039,1.96 -5.699,4.421 -7.961,7.351 -2.188,2.891 -4.027,6.641 -5.469,11.25 -1.371,4.68 -2.031,9.918 -2.031,15.777 0,6.641 1.012,12.653 3.121,17.973 2.07,5.309 4.84,9.57 8.281,12.809 3.52,3.199 7.379,5.66 11.559,7.34 4.14,1.64 8.48,2.5 12.969,2.5 z m 0.781,-10.309 c -7.301,0 -13.199,-2.621 -17.649,-7.813 -4.382,-5.238 -6.562,-12.308 -6.562,-21.25 0,-4.609 0.5,-8.707 1.562,-12.347 1.129,-3.551 2.579,-6.481 4.368,-8.75 1.761,-2.18 3.793,-4.02 6.101,-5.461 2.379,-1.371 4.68,-2.352 6.871,-2.969 2.27,-0.551 4.61,-0.781 7.028,-0.781 5.711,0 11.25,1.441 16.57,4.371 v 50.629 c -7.109,2.89 -13.207,4.371 -18.289,4.371 z" /><path
         id="path60"
         style="fill:#266095;fill-opacity:1;fill-rule:nonzero;stroke:none"
         d="m 893.91,804.961 h 12.809 V 727.77 h -9.059 l -2.66,6.57 c -9.922,-5.43 -19.02,-8.129 -27.34,-8.129 -4.18,0 -7.82,0.699 -10.941,2.027 -3.129,1.332 -5.59,3.012 -7.34,5 -1.68,1.961 -3.051,4.461 -4.07,7.5 -1.047,3.012 -1.719,5.864 -2.028,8.602 -0.312,2.808 -0.472,5.969 -0.472,9.531 v 46.09 h 12.812 V 757.93 c 0,-13.442 5.859,-20.16 17.66,-20.16 6.02,0 12.891,1.96 20.629,5.941 z" /><path
         id="path62"
         style="fill:#266095;fill-opacity:1;fill-rule:nonzero;stroke:none"
         d="m 933.59,838.871 h 15.1602 V 824.0194 H 933.59 Z m 1.101,-33.91 h 12.8086 V 727.7696 H 934.691 Z" /><path
         id="path64"
         style="fill:#266095;fill-opacity:1;fill-rule:nonzero;stroke:none"
         d="m 1009.38,806.52 c 3.2,0 6.32,-0.43 9.37,-1.25 3.01,-0.739 6.02,-2.032 9.06,-3.899 3.01,-1.883 5.67,-4.301 7.97,-7.191 2.27,-2.93 4.1,-6.719 5.47,-11.41 1.45,-4.61 2.19,-9.758 2.19,-15.469 0,-12.731 -3.4,-22.77 -10.16,-30.153 -6.68,-7.308 -15.39,-10.937 -26.09,-10.937 -6.17,0 -12.42,1.41 -18.749,4.219 v -44.219 h -12.82 v 118.75 h 8.91 l 2.188,-4.84 c 7.261,4.258 14.841,6.399 22.661,6.399 z M 1005,795.898 c -5.621,0 -11.172,-1.488 -16.559,-4.378 v -51.399 c 5.618,-2.5 11.25,-3.75 16.869,-3.75 2.39,0 4.69,0.231 6.88,0.777 2.26,0.512 4.57,1.442 6.87,2.813 2.27,1.328 4.26,3.051 5.94,5.16 1.76,2.07 3.16,4.84 4.22,8.277 1.13,3.442 1.72,7.34 1.72,11.723 0,4.879 -0.59,9.219 -1.72,12.969 -1.17,3.75 -2.62,6.711 -4.38,8.898 -1.79,2.192 -3.86,3.953 -6.25,5.313 -2.42,1.449 -4.68,2.39 -6.87,2.82 -2.19,0.5 -4.45,0.777 -6.72,0.777 z" /><path
         id="path66"
         style="fill:#266095;fill-opacity:1;fill-rule:nonzero;stroke:none"
         d="m 1101.25,806.52 c 3.2,0 6.33,-0.43 9.37,-1.25 3.01,-0.739 6.02,-2.032 9.07,-3.899 3.01,-1.883 5.66,-4.301 7.97,-7.191 2.26,-2.93 4.1,-6.719 5.46,-11.41 1.45,-4.61 2.19,-9.758 2.19,-15.469 0,-12.731 -3.4,-22.77 -10.15,-30.153 -6.68,-7.308 -15.39,-10.937 -26.1,-10.937 -6.17,0 -12.42,1.41 -18.75,4.219 v -44.219 h -12.81 v 118.75 h 8.91 l 2.18,-4.84 c 7.27,4.258 14.85,6.399 22.66,6.399 z m -4.37,-10.622 c -5.63,0 -11.18,-1.488 -16.57,-4.378 v -51.399 c 5.63,-2.5 11.25,-3.75 16.88,-3.75 2.38,0 4.69,0.231 6.87,0.777 2.27,0.512 4.57,1.442 6.88,2.813 2.26,1.328 4.26,3.051 5.94,5.16 1.75,2.07 3.16,4.84 4.21,8.277 1.14,3.442 1.72,7.34 1.72,11.723 0,4.879 -0.58,9.219 -1.72,12.969 -1.17,3.75 -2.61,6.711 -4.37,8.898 -1.8,2.192 -3.87,3.953 -6.25,5.313 -2.42,1.449 -4.69,2.39 -6.88,2.82 -2.18,0.5 -4.45,0.777 -6.71,0.777 z" /><path
         id="path68"
         style="fill:#266095;fill-opacity:1;fill-rule:nonzero;stroke:none"
         d="m 1158.28,838.871 h 15.1602 V 824.0194 H 1158.28 Z m 1.1,-33.91 h 12.8125 V 727.7696 H 1159.38 Z" /><path
         id="path70"
         style="fill:#266095;fill-opacity:1;fill-rule:nonzero;stroke:none"
         d="m 1200.31,804.961 h 9.07 l 2.81,-6.563 c 9.88,5.391 18.94,8.122 27.19,8.122 4.14,0 7.81,-0.7 10.93,-2.032 3.13,-1.25 5.51,-2.929 7.19,-5 1.76,-1.988 3.16,-4.488 4.22,-7.5 1.01,-3.039 1.64,-5.937 1.87,-8.75 0.32,-2.726 0.47,-5.859 0.47,-9.367 V 727.77 h -12.81 v 46.878 c 0,13.512 -5.86,20.313 -17.5,20.313 -6.05,0 -12.93,-1.992 -20.63,-5.941 v -61.25 h -12.81 z" /><path
         id="path72"
         style="fill:#266095;fill-opacity:1;fill-rule:nonzero;stroke:none"
         d="m 1324.06,806.52 c 6.14,0 13.21,-2.032 21.25,-6.09 l 1.72,4.531 h 8.91 V 722.93 c 0,-1.559 -0.08,-3.051 -0.16,-4.532 -0.12,-1.449 -0.43,-3.476 -0.94,-6.097 -0.54,-2.692 -1.25,-5.153 -2.18,-7.34 -0.94,-2.191 -2.35,-4.531 -4.22,-7.031 -1.88,-2.578 -4.14,-4.731 -6.72,-6.41 -2.62,-1.75 -5.94,-3.2 -10,-4.372 -4.06,-1.128 -8.67,-1.718 -13.75,-1.718 -7.93,0 -15.9,1.679 -23.91,5 l 3.6,9.371 c 6.44,-2.379 12.69,-3.59 18.75,-3.59 17.81,0 26.71,9.84 26.71,29.527 v 5.782 c -6.67,-3.551 -13.43,-5.309 -20.31,-5.309 -3.36,0 -6.64,0.469 -9.84,1.41 -3.13,0.82 -6.25,2.219 -9.38,4.219 -3.04,1.949 -5.7,4.449 -7.97,7.5 -2.18,3 -4.02,6.789 -5.46,11.398 -1.37,4.571 -2.04,9.731 -2.04,15.473 0,5.937 0.83,11.289 2.5,16.09 1.65,4.89 3.76,8.789 6.26,11.719 2.57,2.89 5.54,5.359 8.9,7.351 3.32,1.949 6.49,3.32 9.53,4.059 3.01,0.699 5.94,1.09 8.75,1.09 z m 0.78,-10.309 c -7.3,0 -13.2,-2.621 -17.65,-7.813 -4.38,-5.238 -6.57,-12.148 -6.57,-20.777 0,-5.742 0.86,-10.902 2.66,-15.473 1.88,-4.609 4.77,-8.277 8.75,-11.097 3.95,-2.813 8.75,-4.211 14.38,-4.211 5.62,0 11.17,1.441 16.71,4.371 v 50.629 c -7.1,2.89 -13.2,4.371 -18.28,4.371 z" /><path
         id="path74"
         style="fill:#266095;fill-opacity:1;fill-rule:nonzero;stroke:none"
         d="m 1418.44,804.961 h 13.75 l 20.93,-64.691 19.85,64.691 h 12.5 l 20.62,-64.691 20.94,64.691 h 13.75 L 1512.5,727.77 h -12.81 l -20.63,62.66 -20.31,-62.66 h -12.81 z" /><path
         id="path76"
         style="fill:#266095;fill-opacity:1;fill-rule:nonzero;stroke:none"
         d="m 1558.28,838.871 h 15.1602 V 824.0194 H 1558.28 Z m 1.1,-33.91 h 12.8125 V 727.7696 H 1559.38 Z" /><path
         id="path78"
         style="fill:#266095;fill-opacity:1;fill-rule:nonzero;stroke:none"
         d="m 1641.41,729.18 c -7.62,-1.95 -13.56,-2.969 -17.82,-2.969 -4.18,0 -7.73,0.699 -10.62,2.027 -2.93,1.332 -5.16,3.282 -6.72,5.782 -1.48,2.5 -2.5,5.199 -3.13,8.128 -0.62,2.891 -0.93,6.25 -0.93,10 v 42.813 h -10.47 v 10 h 10.47 v 22.187 H 1615 v -22.187 h 23.44 v -10 H 1615 v -42.66 c 0,-10.742 4.22,-16.09 12.66,-16.09 1.44,0 5.39,0.551 11.87,1.719 z" /><path
         id="path80"
         style="fill:#266095;fill-opacity:1;fill-rule:nonzero;stroke:none"
         d="m 1695.16,794.961 c -6.06,0 -12.93,-1.992 -20.63,-5.941 v -61.25 h -12.81 v 118.128 h 12.81 V 799.18 c 9.14,4.769 17.7,7.191 25.63,7.191 3.43,0 6.48,-0.473 9.22,-1.41 2.81,-0.859 5.07,-1.949 6.87,-3.281 1.76,-1.25 3.28,-2.969 4.53,-5.16 1.25,-2.11 2.19,-4.059 2.81,-5.93 0.71,-1.801 1.25,-3.988 1.57,-6.57 0.31,-2.5 0.5,-4.61 0.62,-6.25 0.08,-1.559 0.16,-3.43 0.16,-5.622 V 727.77 h -13.13 v 46.718 c 0,13.633 -5.9,20.473 -17.65,20.473 z" /><path
         id="path82"
         style="fill:#266095;fill-opacity:1;fill-rule:nonzero;stroke:none"
         d="m 1793.91,765.121 c 0,6.641 0.93,12.649 2.81,17.969 1.87,5.308 4.41,9.609 7.66,12.961 3.32,3.437 7.18,6.019 11.56,7.82 4.45,1.75 9.26,2.649 14.37,2.649 6.14,0 12.35,-1.36 18.6,-4.059 v 43.437 h 12.81 V 727.77 h -8.91 l -2.03,4.851 c -7.3,-4.301 -14.84,-6.41 -22.66,-6.41 -3.24,0 -6.4,0.43 -9.53,1.25 -3.04,0.699 -6.05,2.027 -9.06,3.91 -3.05,1.949 -5.7,4.41 -7.97,7.34 -2.3,2.891 -4.18,6.598 -5.62,11.09 -1.37,4.578 -2.03,9.687 -2.03,15.32 z m 38.43,-28.281 c 5.63,0 11.14,1.441 16.57,4.371 v 51.559 c -5.55,2.5 -11.1,3.75 -16.72,3.75 -2.42,0 -4.77,-0.27 -7.03,-0.782 -2.19,-0.539 -4.5,-1.476 -6.88,-2.808 -2.3,-1.371 -4.33,-3.129 -6.09,-5.309 -1.68,-2.109 -3.09,-4.922 -4.22,-8.441 -1.06,-3.559 -1.56,-7.578 -1.56,-12.032 0,-4.687 0.54,-8.91 1.71,-12.66 1.14,-3.668 2.58,-6.558 4.38,-8.75 1.76,-2.187 3.83,-4.019 6.25,-5.468 2.38,-1.36 4.69,-2.301 6.87,-2.809 2.19,-0.43 4.42,-0.621 6.72,-0.621 z" /><path
         id="path84"
         style="fill:#266095;fill-opacity:1;fill-rule:nonzero;stroke:none"
         d="m 1889.53,838.871 h 15.1602 V 824.0194 H 1889.53 Z m 1.09,-33.91 h 12.8203 V 727.7696 H 1890.62 Z" /><path
         id="path86"
         style="fill:#266095;fill-opacity:1;fill-rule:nonzero;stroke:none"
         d="m 1963.44,806.52 c 6.13,0 13.2,-2.032 21.25,-6.09 l 1.72,4.531 h 8.9 V 722.93 c 0,-1.559 -0.08,-3.051 -0.15,-4.532 -0.12,-1.449 -0.43,-3.476 -0.94,-6.097 -0.55,-2.692 -1.25,-5.153 -2.19,-7.34 -0.94,-2.191 -2.34,-4.531 -4.22,-7.031 -1.87,-2.578 -4.14,-4.731 -6.72,-6.41 -2.61,-1.75 -5.93,-3.2 -10,-4.372 -4.06,-1.128 -8.67,-1.718 -13.75,-1.718 -7.93,0 -15.89,1.679 -23.9,5 l 3.59,9.371 c 6.45,-2.379 12.7,-3.59 18.75,-3.59 17.81,0 26.72,9.84 26.72,29.527 v 5.782 c -6.68,-3.551 -13.44,-5.309 -20.31,-5.309 -3.36,0 -6.64,0.469 -9.85,1.41 -3.12,0.82 -6.25,2.219 -9.37,4.219 -3.05,1.949 -5.7,4.449 -7.97,7.5 -2.19,3 -4.02,6.789 -5.47,11.398 -1.37,4.571 -2.03,9.731 -2.03,15.473 0,5.937 0.82,11.289 2.5,16.09 1.64,4.89 3.75,8.789 6.25,11.719 2.58,2.89 5.55,5.359 8.91,7.351 3.32,1.949 6.48,3.32 9.53,4.059 3.01,0.699 5.93,1.09 8.75,1.09 z m 0.78,-10.309 c -7.31,0 -13.2,-2.621 -17.66,-7.813 -4.37,-5.238 -6.56,-12.148 -6.56,-20.777 0,-5.742 0.86,-10.902 2.66,-15.473 1.87,-4.609 4.76,-8.277 8.75,-11.097 3.94,-2.813 8.75,-4.211 14.37,-4.211 5.63,0 11.17,1.441 16.72,4.371 v 50.629 c -7.11,2.89 -13.2,4.371 -18.28,4.371 z" /><path
         id="path88"
         style="fill:#266095;fill-opacity:1;fill-rule:nonzero;stroke:none"
         d="m 2022.34,838.871 h 15.1602 V 824.0194 H 2022.34 Z m 1.1,-33.91 h 12.8086 V 727.7696 H 2023.44 Z" /><path
         id="path90"
         style="fill:#266095;fill-opacity:1;fill-rule:nonzero;stroke:none"
         d="m 2105.47,729.18 c -7.62,-1.95 -13.56,-2.969 -17.81,-2.969 -4.18,0 -7.74,0.699 -10.63,2.027 -2.93,1.332 -5.15,3.282 -6.72,5.782 -1.48,2.5 -2.5,5.199 -3.12,8.128 -0.63,2.891 -0.94,6.25 -0.94,10 v 42.813 h -10.47 v 10 h 10.47 v 22.187 h 12.81 v -22.187 h 23.44 v -10 h -23.44 v -42.66 c 0,-10.742 4.22,-16.09 12.66,-16.09 1.44,0 5.39,0.551 11.87,1.719 z" /><path
         id="path92"
         style="fill:#266095;fill-opacity:1;fill-rule:nonzero;stroke:none"
         d="m 2150.62,806.52 c 5.71,0 10.55,-0.7 14.54,-2.032 3.94,-1.367 7.03,-3.359 9.22,-5.937 2.18,-2.5 3.74,-5.313 4.68,-8.43 0.94,-3.133 1.41,-6.723 1.41,-10.781 v -51.57 h -9.06 l -2.97,7.031 c -6.37,-5.742 -13.6,-8.59 -21.72,-8.59 -7.31,0 -13.52,2.187 -18.6,6.559 -5,4.46 -7.5,9.609 -7.5,15.468 0,3.133 0.55,5.942 1.72,8.442 1.14,2.5 2.74,4.57 4.85,6.25 2.19,1.64 4.61,3.05 7.34,4.218 2.81,1.25 6.02,2.192 9.69,2.813 3.75,0.629 7.42,1.019 11.09,1.25 3.75,0.309 7.81,0.469 12.19,0.469 v 6.09 c 0,1.761 -0.08,3.281 -0.16,4.531 -0.11,1.328 -0.54,2.898 -1.25,4.687 -0.74,1.883 -1.71,3.364 -2.97,4.532 -1.24,1.14 -3.12,2.109 -5.62,2.968 -2.5,0.942 -5.47,1.41 -8.91,1.41 -5.31,0 -12.18,-1.207 -20.62,-3.597 l -2.5,9.379 c 8.51,3.199 16.91,4.84 25.15,4.84 z m 16.88,-44.532 h -4.69 c -3.04,0 -5.62,-0.078 -7.81,-0.148 -2.19,-0.121 -4.77,-0.43 -7.66,-0.942 -2.93,-0.546 -5.31,-1.25 -7.18,-2.187 -1.88,-0.859 -3.52,-2.109 -4.85,-3.75 -1.36,-1.68 -2.03,-3.711 -2.03,-6.09 0,-3.25 1.64,-6.172 5,-8.75 3.32,-2.5 7.27,-3.75 11.88,-3.75 6.64,0 12.42,2.578 17.34,7.809 z" /><path
         id="path94"
         style="fill:#266095;fill-opacity:1;fill-rule:nonzero;stroke:none"
         d="m 2210,727.781 h 12.8086 V 845.898 H 2210 Z" /><path
         id="path96"
         style="fill:#266095;fill-opacity:1;fill-rule:nonzero;stroke:none"
         d="m 2328.28,806.52 c 1.13,0 2.19,-0.071 3.13,-0.149 0.93,0 1.87,-0.082 2.81,-0.16 0.94,-0.121 1.72,-0.231 2.34,-0.313 0.63,0 1.33,-0.117 2.19,-0.308 0.94,-0.121 1.56,-0.238 1.87,-0.32 0.4,0 1.1,-0.149 2.04,-0.469 0.93,-0.231 1.48,-0.391 1.72,-0.461 0.19,0 0.78,-0.16 1.71,-0.469 1.02,-0.32 1.64,-0.473 1.88,-0.473 l -3.28,-9.847 c -6.99,1.961 -13.13,2.969 -18.44,2.969 -3.13,0 -5.9,-0.309 -8.28,-0.93 -2.31,-0.629 -4.14,-1.41 -5.47,-2.352 -1.25,-0.859 -2.3,-1.867 -3.12,-3.117 -0.75,-1.172 -1.26,-2.191 -1.57,-3.133 -0.23,-0.859 -0.31,-1.679 -0.31,-2.5 0,-2.109 1.09,-3.976 3.28,-5.617 2.27,-1.68 5.04,-3.051 8.28,-4.07 3.32,-1.051 6.92,-2.301 10.78,-3.75 3.83,-1.481 7.43,-2.961 10.78,-4.531 3.33,-1.559 6.1,-3.821 8.29,-6.719 2.18,-2.813 3.28,-6.09 3.28,-9.84 0,-2.191 -0.28,-4.301 -0.78,-6.25 -0.55,-1.992 -1.57,-4.063 -3.13,-6.25 -1.56,-2.191 -3.55,-4.141 -5.94,-5.781 -2.42,-1.559 -5.62,-2.891 -9.68,-3.91 -4.07,-1.008 -8.75,-1.559 -14.07,-1.559 -7.93,0 -16.68,1.949 -26.25,5.937 l 3.6,9.692 c 5.39,-2 9.76,-3.399 13.12,-4.219 3.44,-0.859 6.8,-1.25 10.16,-1.25 12.69,0 19.06,3.981 19.06,12.027 0,1.762 -0.62,3.321 -1.87,4.692 -1.25,1.32 -2.93,2.422 -5,3.281 -2.11,0.93 -4.5,1.789 -7.19,2.649 -2.62,0.941 -5.27,1.761 -7.97,2.5 -2.73,0.82 -5.43,1.878 -8.13,3.128 -2.61,1.332 -4.96,2.731 -7.03,4.223 -2.11,1.559 -3.75,3.508 -5,5.93 -1.25,2.5 -1.87,5.32 -1.87,8.437 0,1.883 0.31,3.75 0.94,5.633 0.62,1.949 1.72,4.059 3.28,6.25 1.64,2.18 3.67,4.059 6.09,5.617 2.5,1.641 5.78,3.012 9.85,4.063 4.14,1.14 8.78,1.719 13.9,1.719 z" /><path
         id="path98"
         style="fill:#266095;fill-opacity:1;fill-rule:nonzero;stroke:none"
         d="m 2375.62,845.898 h 12.8203 V 727.769 H 2375.62 Z m 48.13,-39.378 h 14.22 l -33.59,-34.68 35.62,-44.07 h -15.47 l -34.84,42.66 z" /><path
         id="path100"
         style="fill:#266095;fill-opacity:1;fill-rule:nonzero;stroke:none"
         d="m 2458.28,838.871 h 15.1602 V 824.0194 H 2458.28 Z m 1.1,-33.91 h 12.8125 V 727.7696 H 2459.38 Z" /><path
         id="path102"
         style="fill:#266095;fill-opacity:1;fill-rule:nonzero;stroke:none"
         d="m 2501.88,727.781 h 12.8125 V 845.898 H 2501.88 Z" /><path
         id="path104"
         style="fill:#266095;fill-opacity:1;fill-rule:nonzero;stroke:none"
         d="m 2545.94,727.781 h 12.8086 V 845.898 H 2545.94 Z" /><path
         id="path106"
         style="fill:#266095;fill-opacity:1;fill-rule:nonzero;stroke:none"
         d="m 2620.47,806.52 c 1.13,0 2.19,-0.071 3.12,-0.149 0.94,0 1.88,-0.082 2.82,-0.16 0.93,-0.121 1.71,-0.231 2.34,-0.313 0.63,0 1.33,-0.117 2.19,-0.308 0.94,-0.121 1.56,-0.238 1.87,-0.32 0.39,0 1.1,-0.149 2.03,-0.469 0.94,-0.231 1.49,-0.391 1.72,-0.461 0.2,0 0.78,-0.16 1.72,-0.469 1.02,-0.32 1.64,-0.473 1.88,-0.473 l -3.28,-9.847 c -7,1.961 -13.13,2.969 -18.44,2.969 -3.13,0 -5.9,-0.309 -8.28,-0.93 -2.31,-0.629 -4.14,-1.41 -5.47,-2.352 -1.25,-0.859 -2.31,-1.867 -3.13,-3.117 -0.74,-1.172 -1.25,-2.191 -1.56,-3.133 -0.23,-0.859 -0.31,-1.679 -0.31,-2.5 0,-2.109 1.09,-3.976 3.28,-5.617 2.26,-1.68 5.04,-3.051 8.28,-4.07 3.32,-1.051 6.91,-2.301 10.78,-3.75 3.83,-1.481 7.42,-2.961 10.78,-4.531 3.32,-1.559 6.1,-3.821 8.28,-6.719 2.19,-2.813 3.29,-6.09 3.29,-9.84 0,-2.191 -0.28,-4.301 -0.79,-6.25 -0.54,-1.992 -1.56,-4.063 -3.12,-6.25 -1.56,-2.191 -3.56,-4.141 -5.94,-5.781 -2.42,-1.559 -5.62,-2.891 -9.69,-3.91 -4.06,-1.008 -8.75,-1.559 -14.06,-1.559 -7.93,0 -16.68,1.949 -26.25,5.937 l 3.59,9.692 c 5.4,-2 9.77,-3.399 13.13,-4.219 3.44,-0.859 6.8,-1.25 10.16,-1.25 12.69,0 19.06,3.981 19.06,12.027 0,1.762 -0.63,3.321 -1.88,4.692 -1.25,1.32 -2.93,2.422 -5,3.281 -2.11,0.93 -4.49,1.789 -7.18,2.649 -2.62,0.941 -5.28,1.761 -7.97,2.5 -2.74,0.82 -5.43,1.878 -8.13,3.128 -2.61,1.332 -4.96,2.731 -7.03,4.223 -2.11,1.559 -3.75,3.508 -5,5.93 -1.25,2.5 -1.87,5.32 -1.87,8.437 0,1.883 0.31,3.75 0.93,5.633 0.63,1.949 1.72,4.059 3.28,6.25 1.65,2.18 3.68,4.059 6.1,5.617 2.5,1.641 5.78,3.012 9.84,4.063 4.14,1.14 8.79,1.719 13.91,1.719 z" /></g></g></svg>