<svg width="24" height="25" viewBox="0 0 24 25" fill="none" xmlns="http://www.w3.org/2000/svg">
<g id="logos:whatsapp-icon" clip-path="url(#clip0_2397_6613)">
<path id="Vector" d="M0.512578 12.3563C0.512016 14.3728 1.04302 16.3417 2.0527 18.0771L0.416016 24.0066L6.53152 22.4156C8.22298 23.3292 10.1181 23.808 12.044 23.8081H12.0491C18.4067 23.8081 23.582 18.6748 23.5847 12.3653C23.586 9.30792 22.3871 6.43295 20.2089 4.26997C18.0311 2.10718 15.1347 0.915458 12.0486 0.914062C5.6902 0.914062 0.515297 6.04709 0.512672 12.3563" fill="url(#paint0_linear_2397_6613)"/>
<path id="Vector_2" d="M0.100313 12.3527C0.0996563 14.4417 0.649687 16.481 1.69537 18.2786L0 24.4207L6.33478 22.7726C8.08022 23.7168 10.0454 24.2147 12.0451 24.2154H12.0502C18.636 24.2154 23.9972 18.8975 24 12.3621C24.0011 9.19488 22.7591 6.21656 20.5031 3.97609C18.2468 1.73591 15.2468 0.501302 12.0502 0.5C5.46337 0.5 0.102938 5.81721 0.100313 12.3527ZM3.87281 17.969L3.63628 17.5965C2.64197 16.0277 2.11716 14.2149 2.11791 12.3534C2.12006 6.9213 6.57544 2.50186 12.054 2.50186C14.7071 2.50298 17.2005 3.52921 19.0759 5.39116C20.9512 7.2533 21.9831 9.72865 21.9824 12.3614C21.98 17.7935 17.5245 22.2135 12.0502 22.2135H12.0463C10.2638 22.2126 8.51569 21.7376 6.99113 20.84L6.62831 20.6265L2.86912 21.6045L3.87281 17.9689V17.969Z" fill="url(#paint1_linear_2397_6613)"/>
<path id="Vector_3" d="M9.06383 7.39771C8.84014 6.9044 8.60473 6.89445 8.39202 6.8858C8.21783 6.87836 8.0187 6.87892 7.81977 6.87892C7.62064 6.87892 7.29711 6.95324 7.02364 7.24952C6.74989 7.54608 5.97852 8.26273 5.97852 9.72031C5.97852 11.178 7.04848 12.5866 7.19764 12.7845C7.34698 12.982 9.26323 16.0689 12.2981 17.2564C14.8204 18.2433 15.3336 18.047 15.881 17.9975C16.4285 17.9482 17.6477 17.2811 17.8964 16.5892C18.1453 15.8975 18.1453 15.3046 18.0707 15.1807C17.996 15.0572 17.7969 14.9831 17.4983 14.835C17.1996 14.6868 15.7317 13.9701 15.458 13.8712C15.1843 13.7724 14.9853 13.7231 14.7861 14.0198C14.587 14.3159 14.0152 14.9831 13.841 15.1807C13.6669 15.3787 13.4926 15.4034 13.1941 15.2552C12.8953 15.1065 11.9337 14.7941 10.7929 13.7849C9.90523 12.9996 9.30598 12.0298 9.1318 11.7331C8.95761 11.437 9.11314 11.2764 9.26286 11.1288C9.39702 10.996 9.56155 10.7828 9.71098 10.6099C9.85986 10.4369 9.90955 10.3134 10.0091 10.1158C10.1088 9.91808 10.0589 9.74506 9.98436 9.59687C9.90955 9.44868 9.32933 7.98347 9.06383 7.39771Z" fill="white"/>
</g>
<defs>
<linearGradient id="paint0_linear_2397_6613" x1="1158.85" y1="2310.17" x2="1158.85" y2="0.914062" gradientUnits="userSpaceOnUse">
<stop stop-color="#1FAF38"/>
<stop offset="1" stop-color="#60D669"/>
</linearGradient>
<linearGradient id="paint1_linear_2397_6613" x1="1200" y1="2392.57" x2="1200" y2="0.5" gradientUnits="userSpaceOnUse">
<stop stop-color="#F9F9F9"/>
<stop offset="1" stop-color="white"/>
</linearGradient>
<clipPath id="clip0_2397_6613">
<rect width="24" height="24" fill="white" transform="translate(0 0.5)"/>
</clipPath>
</defs>
</svg>
