<svg width="25" height="24" viewBox="0 0 25 24" fill="none" xmlns="http://www.w3.org/2000/svg">
<g id="uit:telegram-alt">
<path id="Vector" d="M17.5773 2.70553C17.413 2.55574 17.215 2.45764 17.0041 2.42164C16.7932 2.38564 16.5775 2.41307 16.3796 2.50103L2.72876 8.56292C2.50817 8.66263 2.32037 8.83379 2.19028 9.05367C2.0602 9.27355 1.99398 9.53175 2.00043 9.79399C2.00688 10.0562 2.08568 10.3101 2.22638 10.5219C2.36708 10.7338 2.56302 10.8935 2.78819 10.98L5.73367 12.1047L7.32984 17.9093C7.33289 17.921 7.34279 17.9285 7.34736 17.9394C7.36381 17.9857 7.38782 18.0284 7.41822 18.0651C7.4644 18.1219 7.52402 18.1634 7.59041 18.185C7.59802 18.1883 7.60336 18.1959 7.61098 18.1976H7.61555L7.61783 18.1984C7.67678 18.2124 7.73803 18.2089 7.79536 18.1883C7.80145 18.1867 7.80755 18.1867 7.8144 18.1842C7.86945 18.1629 7.91926 18.1279 7.95992 18.0819C7.9645 18.076 7.97212 18.0752 7.97669 18.0702L10.2723 15.2827L13.6223 18.1364C13.8257 18.3115 14.0764 18.4062 14.3347 18.4062C14.8939 18.4062 15.3762 17.9755 15.4912 17.3746L17.9765 3.95009C18.0187 3.72219 18.0038 3.48598 17.9335 3.26665C17.8632 3.04732 17.7401 2.85309 17.5773 2.70469V2.70553ZM8.16259 13.2068L7.62393 16.0873L6.50014 11.9991L12.0734 8.80596L8.26621 12.9947C8.21348 13.0527 8.17745 13.1264 8.16259 13.2068ZM14.7446 17.2061C14.7303 17.2821 14.6985 17.3528 14.6522 17.4113C14.6059 17.4699 14.5466 17.5144 14.4802 17.5405C14.4154 17.5679 14.3452 17.5763 14.2765 17.5649C14.2079 17.5534 14.1431 17.5225 14.0886 17.4751L10.4597 14.3834C10.3838 14.319 10.2887 14.2884 10.1932 14.2977C10.0978 14.3071 10.009 14.3556 9.94466 14.4337L8.34697 16.3705L8.88486 13.4984L14.3621 7.47257C14.4263 7.40177 14.4653 7.3081 14.4722 7.20843C14.479 7.10877 14.4533 7.00969 14.3996 6.92907C14.3459 6.84845 14.2678 6.79159 14.1793 6.76877C14.0908 6.74595 13.9979 6.75866 13.9172 6.80461L6.02167 11.3286L3.03733 10.1871C2.9582 10.1584 2.88919 10.1032 2.83989 10.0293C2.79059 9.95541 2.76347 9.86645 2.76228 9.77479C2.75849 9.68232 2.78095 9.59085 2.82654 9.51306C2.87214 9.43527 2.93862 9.37502 3.01676 9.34066L16.6653 3.27878C16.7353 3.24609 16.8121 3.23552 16.8872 3.24825C16.9623 3.26098 17.0327 3.29652 17.0905 3.35085C17.1479 3.40197 17.1913 3.46963 17.2157 3.54629C17.2402 3.62295 17.2449 3.70559 17.2291 3.78498L14.7446 17.2069V17.2061Z" fill="#FEFEFF"/>
</g>
</svg>
